<svg width="163" height="43" viewBox="0 0 163 43" fill="none" xmlns="http://www.w3.org/2000/svg">
<path fill-rule="evenodd" clip-rule="evenodd" d="M1.47584 9C0.660781 9 0 9.59393 0 10.3265V33.6735C0 34.4061 0.660781 35 1.47584 35C2.29089 35 2.95167 34.4061 2.95167 33.6735V10.3265C2.95167 9.59393 2.29089 9 1.47584 9Z" fill="#222B52"/>
<path fill-rule="evenodd" clip-rule="evenodd" d="M6.05109 16.6934H18.8417C19.3579 16.6934 19.7764 16.3173 19.7764 15.8533V11.6968C19.7764 11.2328 19.3579 10.8567 18.8417 10.8567H6.05109C5.53484 10.8567 5.11639 11.2328 5.11639 11.6968V15.8533C5.11639 16.3173 5.53484 16.6934 6.05109 16.6934Z" fill="#5C41F5"/>
<path fill-rule="evenodd" clip-rule="evenodd" d="M25.237 19.0823H6.05109C5.53484 19.0823 5.11639 19.4584 5.11639 19.9224V24.0789C5.11639 24.5429 5.53484 24.919 6.05109 24.919H25.237C25.7532 24.919 26.1716 24.5429 26.1716 24.0789V19.9224C26.1716 19.4584 25.7532 19.0823 25.237 19.0823Z" fill="#5C41F5"/>
<path fill-rule="evenodd" clip-rule="evenodd" d="M16.3819 27.3062H6.05109C5.53484 27.3062 5.11639 27.6823 5.11639 28.1463V32.3027C5.11639 32.7668 5.53484 33.1429 6.05109 33.1429H16.3819C16.8982 33.1429 17.3166 32.7668 17.3166 32.3027V28.1463C17.3166 27.6823 16.8982 27.3062 16.3819 27.3062Z" fill="#1ECCFF"/>
<path d="M40.948 31V23.552C40.948 22.3947 40.7707 21.564 40.416 21.06C40.08 20.5373 39.5013 20.276 38.68 20.276C37.8027 20.276 37.1587 20.5373 36.748 21.06C36.356 21.5827 36.16 22.3947 36.16 23.496V31H32.1V16.692H36.16V18.008C37.0747 16.9067 38.372 16.356 40.052 16.356C41.3773 16.356 42.5347 16.776 43.524 17.616C44.5133 18.456 45.008 19.8187 45.008 21.704V31H40.948ZM56.1085 31V29.684C55.2125 30.7853 53.9058 31.336 52.1885 31.336C51.6098 31.336 51.0498 31.2427 50.5085 31.056C49.9671 30.888 49.4445 30.608 48.9405 30.216C48.4365 29.824 48.0258 29.264 47.7085 28.536C47.4098 27.808 47.2605 26.9587 47.2605 25.988V16.692H51.3205V24.14C51.3205 25.2787 51.4885 26.1093 51.8245 26.632C52.1605 27.1547 52.7578 27.416 53.6165 27.416C54.4751 27.416 55.1005 27.1547 55.4925 26.632C55.9031 26.1093 56.1085 25.2973 56.1085 24.196V16.692H60.1685V31H56.1085ZM62.7009 31V16.692H66.7609V17.98C66.9476 17.6067 67.2836 17.2427 67.7689 16.888C68.2543 16.5333 68.8236 16.356 69.4769 16.356C70.5969 16.356 71.5396 16.7573 72.3049 17.56L71.7729 21.256C70.9889 20.6027 70.1396 20.276 69.2249 20.276C67.5823 20.276 66.7609 21.2653 66.7609 23.244V31H62.7009ZM77.3915 31.336C74.9835 31.336 73.7795 30.0293 73.7795 27.416V20.248H71.8195V16.692H73.7795V12.716L77.8115 10.784V16.692H80.9195V20.248H77.8115V27.024C77.8115 27.2853 77.8862 27.4907 78.0355 27.64C78.2035 27.7707 78.3995 27.836 78.6235 27.836C79.4449 27.836 80.2662 27.6493 81.0875 27.276L80.6395 30.692C79.7622 31.1213 78.6795 31.336 77.3915 31.336ZM92.1661 31V29.684C91.2701 30.7853 89.9635 31.336 88.2461 31.336C87.6675 31.336 87.1075 31.2427 86.5661 31.056C86.0248 30.888 85.5021 30.608 84.9981 30.216C84.4941 29.824 84.0835 29.264 83.7661 28.536C83.4675 27.808 83.3181 26.9587 83.3181 25.988V16.692H87.3781V24.14C87.3781 25.2787 87.5461 26.1093 87.8821 26.632C88.2181 27.1547 88.8155 27.416 89.6741 27.416C90.5328 27.416 91.1581 27.1547 91.5501 26.632C91.9608 26.1093 92.1661 25.2973 92.1661 24.196V16.692H96.2261V31H92.1661ZM98.7586 31V16.692H102.819V17.98C103.005 17.6067 103.341 17.2427 103.827 16.888C104.312 16.5333 104.881 16.356 105.535 16.356C106.655 16.356 107.597 16.7573 108.363 17.56L107.831 21.256C107.047 20.6027 106.197 20.276 105.283 20.276C103.64 20.276 102.819 21.2653 102.819 23.244V31H98.7586ZM114.585 31.336C112.476 31.336 110.814 30.6733 109.601 29.348C108.388 28.0227 107.781 26.184 107.781 23.832C107.781 21.536 108.388 19.716 109.601 18.372C110.833 17.028 112.494 16.356 114.585 16.356C116.489 16.356 118.038 16.9347 119.233 18.092C120.428 19.2493 121.025 20.9293 121.025 23.132C121.025 24.0467 120.988 24.7467 120.913 25.232H111.757C111.794 26.128 112.074 26.8 112.597 27.248C113.12 27.6773 113.782 27.892 114.585 27.892C115.892 27.892 116.965 27.388 117.805 26.38L120.157 28.732C118.72 30.468 116.862 31.336 114.585 31.336ZM111.785 22.18H117.133C116.928 20.5933 116.022 19.8 114.417 19.8C113.689 19.8 113.092 20.0147 112.625 20.444C112.158 20.8547 111.878 21.4333 111.785 22.18ZM129.043 31.336C127.68 31.336 126.458 30.8133 125.375 29.768V31H122.939V11.932L125.375 10.784V17.924C126.327 16.8787 127.522 16.356 128.959 16.356C130.751 16.356 132.188 17.0187 133.271 18.344C134.354 19.6693 134.895 21.4987 134.895 23.832C134.895 26.24 134.372 28.0973 133.327 29.404C132.3 30.692 130.872 31.336 129.043 31.336ZM128.707 29.068C129.92 29.068 130.835 28.6107 131.451 27.696C132.086 26.7627 132.403 25.4747 132.403 23.832C132.403 22.1333 132.086 20.836 131.451 19.94C130.835 19.044 129.92 18.596 128.707 18.596C127.96 18.596 127.288 18.792 126.691 19.184C126.094 19.576 125.655 20.0147 125.375 20.5V27.136C125.73 27.7333 126.206 28.2093 126.803 28.564C127.4 28.9 128.035 29.068 128.707 29.068ZM147.09 29.348C145.951 30.6733 144.411 31.336 142.47 31.336C140.528 31.336 138.988 30.6733 137.85 29.348C136.711 28.0227 136.142 26.1933 136.142 23.86C136.142 21.5267 136.711 19.6973 137.85 18.372C138.988 17.028 140.528 16.356 142.47 16.356C144.411 16.356 145.951 17.0187 147.09 18.344C148.228 19.6693 148.798 21.4987 148.798 23.832C148.798 26.1653 148.228 28.004 147.09 29.348ZM139.614 27.696C140.304 28.6107 141.256 29.068 142.47 29.068C143.683 29.068 144.626 28.6107 145.298 27.696C145.988 26.7627 146.334 25.4747 146.334 23.832C146.334 22.208 145.988 20.9293 145.298 19.996C144.626 19.0627 143.683 18.596 142.47 18.596C141.256 18.596 140.304 19.0627 139.614 19.996C138.942 20.9107 138.606 22.1987 138.606 23.86C138.606 25.484 138.942 26.7627 139.614 27.696ZM148.671 31L153.459 23.552L149.035 16.692H151.751L154.019 20.164C154.448 20.8547 154.719 21.312 154.831 21.536C155.279 20.7893 155.559 20.332 155.671 20.164L157.911 16.692H160.655L156.203 23.552L161.019 31H158.275L155.643 26.94C155.437 26.6227 155.167 26.1653 154.831 25.568C154.663 25.904 154.392 26.3613 154.019 26.94L151.387 31H148.671Z" fill="#222B52"/>
</svg>
